<svg width="24.000000" height="24.000000" viewBox="0 0 24 24" fill="none" xmlns="http://www.w3.org/2000/svg" xmlns:xlink="http://www.w3.org/1999/xlink">
	<desc>
			Created with Pixso.
	</desc>
	<circle cx="12.000000" cy="12.000000" r="8.000000" fill="#999999"/>
	<path d="M9.08838 13.2646C8.52832 13.2646 8.08838 12.8247 8.08838 12.2646C8.08838 11.7046 8.52832 11.2646 9.08838 11.2646L15.4414 11.2646C16.0012 11.2646 16.4414 11.7046 16.4414 12.2646C16.4414 12.8247 16.0012 13.2646 15.4414 13.2646L9.08838 13.2646Z" fill-rule="evenodd" fill="#FFFFFF"/>
	<path d="M11.2646 9.08838C11.2646 8.52832 11.7046 8.08838 12.2646 8.08838C12.8247 8.08838 13.2646 8.52832 13.2646 9.08838L13.2646 15.4414C13.2646 16.0015 12.8247 16.4414 12.2646 16.4414C11.7046 16.4414 11.2646 16.0015 11.2646 15.4414L11.2646 9.08838Z" fill-rule="evenodd" fill="#FFFFFF"/>
	<defs/>
</svg>
