<?xml version="1.0" standalone="no"?><!DOCTYPE svg PUBLIC "-//W3C//DTD SVG 1.1//EN" "http://www.w3.org/Graphics/SVG/1.1/DTD/svg11.dtd"><svg t="1663817129526" class="icon" viewBox="0 0 1024 1024" version="1.1" xmlns="http://www.w3.org/2000/svg" p-id="3084" xmlns:xlink="http://www.w3.org/1999/xlink" width="16" height="16"><path d="M512 960C264.576 960 64 759.424 64 512S264.576 64 512 64s448 200.576 448 448-200.576 448-448 448z m-42.666667-490.666667h-128a42.666667 42.666667 0 1 0 0 85.333334h128v128a42.666667 42.666667 0 1 0 85.333334 0v-128h128a42.666667 42.666667 0 1 0 0-85.333334h-128v-128a42.666667 42.666667 0 1 0-85.333334 0v128z" fill="#000000" p-id="3085"></path></svg>