<svg xmlns="http://www.w3.org/2000/svg" width="12" height="10" viewBox="0 0 12 10"><g transform="translate(13933.025 7665)"><path d="M9.025,9c.558,0,.6-.061.8-.4l.024-.038a1,1,0,0,0,.064-.109l.023-.043L10,8.3a22.443,22.443,0,0,0,1-3.67.835.835,0,0,0-.343-.218l-.64-.247v-.7a1.232,1.232,0,0,0-1-1.235h-4.4L3.5,1H2.025a1,1,0,0,0-1,1V7.385l-.008.062a1.609,1.609,0,0,0,0,.437l.011.069v.069a.989.989,0,0,0,.209.59l.027.034.023.036c.1.161.246.318.741.318h7m0,1h-7A1.725,1.725,0,0,1,.444,9.224,1.99,1.99,0,0,1,.026,8.042a2.568,2.568,0,0,1,0-.72V2a2,2,0,0,1,2-2H3.937l1.13,1.228H9.025a2.213,2.213,0,0,1,2,2.235v.015a1.359,1.359,0,0,1,1,1.161,25.975,25.975,0,0,1-1.151,4.148l-.065.115a2,2,0,0,1-.128.218A1.592,1.592,0,0,1,9.025,10Z" transform="translate(-13933.025 -7665)" fill="#707070"/><path d="M3.087.994a1.612,1.612,0,0,0-1.169.739l-.009.029-.047.079A5.593,5.593,0,0,0,.991,4.6a1.74,1.74,0,0,0,.379.916A.839.839,0,0,0,2,5.695H9a1.217,1.217,0,0,0,.564-.09,2.472,2.472,0,0,0,.414-.612,22.453,22.453,0,0,0,1-3.672A1.352,1.352,0,0,0,10,.994H3.087M3-.006h7c1.1,0,2,.6,2,1.339a25.968,25.968,0,0,1-1.15,4.148C10.374,6.333,10.1,6.695,9,6.695H2C.9,6.695.258,6.122.008,4.782S1,1.333,1,1.333A2.574,2.574,0,0,1,3-.006Z" transform="translate(-13933 -7661.695)" fill="#707070"/></g></svg>