<svg xmlns="http://www.w3.org/2000/svg" width="15" height="13" viewBox="0 0 15 13">
  <g id="组_1889" data-name="组 1889" transform="translate(15592 22319)">
    <g id="矩形_1784" data-name="矩形 1784" transform="translate(-15587 -22316)" fill="#fff" stroke="#999" stroke-width="1">
      <path d="M0,0H7a3,3,0,0,1,3,3V7a3,3,0,0,1-3,3H0a0,0,0,0,1,0,0V0A0,0,0,0,1,0,0Z" stroke="none"/>
      <path d="M1,.5H7A2.5,2.5,0,0,1,9.5,3V7A2.5,2.5,0,0,1,7,9.5H1A.5.5,0,0,1,.5,9V1A.5.5,0,0,1,1,.5Z" fill="none"/>
    </g>
    <path id="矩形_1785" data-name="矩形 1785" d="M3,0H8A0,0,0,0,1,8,0V10a0,0,0,0,1,0,0H3A3,3,0,0,1,0,7V3A3,3,0,0,1,3,0Z" transform="translate(-15592 -22319)" fill="#999"/>
    <text id="文" transform="translate(-15585 -22309)" fill="#999" font-size="6" font-family="PingFangSC-Semibold, PingFang SC" font-weight="600"><tspan x="0" y="0">文</tspan></text>
    <text id="E" transform="translate(-15590 -22312)" fill="#ccc" font-size="7" font-family="PingFangSC-Semibold, PingFang SC" font-weight="600"><tspan x="0" y="0">E</tspan></text>
    <path id="路径_724" data-name="路径 724" d="M-15587-22306.092l3.043-3.279H-15587Z" transform="translate(-0.043 0.09)" fill="#999"/>
  </g>
</svg>
