<svg xmlns="http://www.w3.org/2000/svg" width="13" height="11.997" viewBox="0 0 13 11.997">
  <g id="组_1989" data-name="组 1989" transform="translate(-485.5 -97.28)">
    <path id="路径_844" data-name="路径 844" d="M2.769,0H9.231A2.736,2.736,0,0,1,12,2.7v3.6a2.736,2.736,0,0,1-2.769,2.7V11L6.436,9.008H2.769A2.736,2.736,0,0,1,0,6.306V2.7A2.736,2.736,0,0,1,2.769,0Z" transform="translate(486 97.78)" fill="none" stroke="#707070" stroke-linejoin="round" stroke-width="1"/>
    <g id="组_1990" data-name="组 1990" transform="translate(0 1)">
      <g id="矩形_2033" data-name="矩形 2033" transform="translate(488 101)" fill="#fff" stroke="#707070" stroke-width="1">
        <rect width="2" height="2" rx="1" stroke="none"/>
        <rect x="0.5" y="0.5" width="1" height="1" rx="0.5" fill="none"/>
      </g>
      <g id="矩形_2034" data-name="矩形 2034" transform="translate(491 101)" fill="#fff" stroke="#707070" stroke-width="1">
        <rect width="2" height="2" rx="1" stroke="none"/>
        <rect x="0.5" y="0.5" width="1" height="1" rx="0.5" fill="none"/>
      </g>
      <g id="矩形_2035" data-name="矩形 2035" transform="translate(494 101)" fill="#fff" stroke="#707070" stroke-width="1">
        <rect width="2" height="2" rx="1" stroke="none"/>
        <rect x="0.5" y="0.5" width="1" height="1" rx="0.5" fill="none"/>
      </g>
    </g>
  </g>
</svg>
